<?xml version="1.0" encoding="UTF-8"?>
<svg version="1.1" xmlns="http://www.w3.org/2000/svg" width="255" height="48">
<path d="M0 0 C1.33664955 -0.01429802 1.33664955 -0.01429802 2.70030212 -0.02888489 C3.66488846 -0.02797348 4.62947479 -0.02706207 5.62329102 -0.02612305 C6.61216812 -0.03040817 7.60104523 -0.0346933 8.61988831 -0.03910828 C10.71386956 -0.04485816 12.8078708 -0.04534701 14.90185547 -0.04101562 C18.11077887 -0.03785795 21.31877874 -0.06129897 24.52758789 -0.08666992 C26.55948777 -0.08894302 28.59139013 -0.08964636 30.62329102 -0.08862305 C32.06713417 -0.10243767 32.06713417 -0.10243767 33.54014587 -0.11653137 C34.43439774 -0.11030258 35.3286496 -0.10407379 36.25 -0.09765625 C37.03672592 -0.09828568 37.82345184 -0.0989151 38.63401794 -0.0995636 C41.21131929 0.36961578 42.11727977 1.21449474 43.68969727 3.2746582 C43.68969727 3.9346582 43.68969727 4.5946582 43.68969727 5.2746582 C44.38836914 4.9137207 45.08704102 4.5527832 45.80688477 4.1809082 C46.71696289 3.7168457 47.62704102 3.2527832 48.56469727 2.7746582 C49.46961914 2.3105957 50.37454102 1.8465332 51.30688477 1.3684082 C53.68969727 0.2746582 53.68969727 0.2746582 55.68969727 0.2746582 C55.68969727 3.5746582 55.68969727 6.8746582 55.68969727 10.2746582 C47.40746266 15.03845446 39.10185137 19.74239559 30.68969727 24.2746582 C31.23384277 24.55664062 31.77798828 24.83862305 32.33862305 25.12915039 C34.83251754 26.42408774 37.32361166 27.72432613 39.81469727 29.0246582 C41.09860352 29.68981445 41.09860352 29.68981445 42.40844727 30.3684082 C44.85002428 31.6455408 47.27353629 32.95015184 49.68969727 34.2746582 C50.33084473 34.61658203 50.97199219 34.95850586 51.63256836 35.31079102 C53.28344727 36.2746582 53.28344727 36.2746582 55.68969727 38.2746582 C56.27563477 40.8527832 56.27563477 40.8527832 56.06469727 43.5246582 C56.01055664 44.41668945 55.95641602 45.3087207 55.90063477 46.2277832 C55.83102539 46.90325195 55.76141602 47.5787207 55.68969727 48.2746582 C51.63688014 47.04938791 48.24608963 45.57585326 44.68969727 43.2746582 C44.23409424 44.08813721 43.77849121 44.90161621 43.30908203 45.73974609 C39.95061665 48.98990417 38.12762695 48.86087962 33.60496521 48.8924408 C32.67257523 48.87290848 31.74018524 48.85337616 30.77954102 48.83325195 C29.81568985 48.83092056 28.85183868 48.82858917 27.85877991 48.82618713 C25.82373184 48.81645361 23.78871072 48.79467561 21.75390625 48.76171875 C18.63509123 48.71228333 15.51785318 48.70023654 12.39868164 48.69458008 C10.42145128 48.68049497 8.44423463 48.66429089 6.46704102 48.64575195 C5.06541969 48.6377079 5.06541969 48.6377079 3.63548279 48.62950134 C2.3338192 48.60552025 2.3338192 48.60552025 1.00585938 48.58105469 C0.24293076 48.57041489 -0.51999786 48.55977509 -1.30604553 48.54881287 C-3.31030273 48.2746582 -3.31030273 48.2746582 -6.31030273 46.2746582 C-7.19455047 41.52859382 -7.17390743 37.02173369 -6.31030273 32.2746582 C-4.07077224 29.49321663 -1.64135767 28.42679728 1.68969727 27.2746582 C2.84469727 26.8415332 3.99969727 26.4084082 5.18969727 25.9621582 C6.42719727 25.6218457 6.42719727 25.6218457 7.68969727 25.2746582 C7.68969727 24.6146582 7.68969727 23.9546582 7.68969727 23.2746582 C6.86469727 23.0271582 6.03969727 22.7796582 5.18969727 22.5246582 C1.16596256 21.08761009 -2.53009297 19.25111305 -6.31030273 17.2746582 C-6.36414122 14.8160342 -6.40389311 12.3585827 -6.43530273 9.8996582 C-6.45206055 9.20098633 -6.46881836 8.50231445 -6.48608398 7.7824707 C-6.5037454 5.94568334 -6.41333534 4.10863858 -6.31030273 2.2746582 C-3.89206472 -0.14357981 -3.30709305 0.01938731 0 0 Z M1.68969727 9.2746582 C4.5913905 12.17635143 6.89503447 13.65528578 10.50219727 15.5246582 C11.51926758 16.06606445 12.53633789 16.6074707 13.58422852 17.1652832 C18.60435415 18.95863626 21.57017317 17.77448855 26.33813477 15.64575195 C27.58454565 15.00942639 28.82672235 14.36474415 30.06469727 13.7121582 C31.02569336 13.218125 31.02569336 13.218125 32.00610352 12.71411133 C33.57108359 11.90826338 35.13093748 11.09247327 36.68969727 10.2746582 C36.68969727 9.9446582 36.68969727 9.6146582 36.68969727 9.2746582 C25.13969727 9.2746582 13.58969727 9.2746582 1.68969727 9.2746582 Z M1.68969727 38.2746582 C1.68969727 38.6046582 1.68969727 38.9346582 1.68969727 39.2746582 C13.23969727 39.2746582 24.78969727 39.2746582 36.68969727 39.2746582 C22.19957287 28.40706491 16.6285839 28.01999874 1.68969727 38.2746582 Z " fill="#E5E5E5" transform="translate(6.310302734375,-0.274658203125)"/>
<path d="M0 0 C0 2.64 0 5.28 0 8 C-0.54527344 7.84402344 -1.09054688 7.68804687 -1.65234375 7.52734375 C-7.27082863 6.07710235 -12.32963999 5.44320777 -18 7 C-21.05779929 9.06401452 -21.79915246 10.38406754 -22.9375 13.875 C-23.01606404 17.80320182 -22.20625381 19.76416108 -20 23 C-15.57719339 25.70282626 -10.76340542 25.56237724 -5.7734375 24.546875 C-3.83936661 24.06848291 -1.91821886 23.5384474 0 23 C0 25.64 0 28.28 0 31 C-7.08637587 34.03701823 -12.66700099 35.29377344 -20.125 32.8125 C-24.77893169 30.86114675 -28.85397115 28.33915478 -31.140625 23.671875 C-32.94119566 18.07373714 -33.15688881 11.48580221 -30.5 6.125 C-27.42112574 1.56695127 -22.69133549 -1.00845535 -17.625 -2.875 C-11.59176986 -3.16229667 -5.46565243 -2.73282622 0 0 Z " fill="#E5E5E5" transform="translate(206,5)"/>
<path d="M0 0 C0 2.64 0 5.28 0 8 C-1.134375 7.649375 -2.26875 7.29875 -3.4375 6.9375 C-8.11903232 5.78166875 -12.32803549 5.74923785 -17 7 C-20.36453178 9.18694566 -20.87919338 10.55704238 -21.9375 14.4375 C-22.00779003 18.44403151 -21.53249114 19.94354518 -19 23 C-15.48590892 25.73318195 -11.25416715 25.41042058 -7 25 C-4.58850466 24.47319499 -2.34753563 23.78251188 0 23 C0 25.64 0 28.28 0 31 C-6.78624623 34.46531722 -12.81889288 35.2015186 -20.1875 32.9375 C-25.17516494 30.86263139 -28.61264064 26.77471872 -31 22 C-31.49328755 16.14524289 -31.85744288 10.81015719 -29.3125 5.4375 C-21.38715679 -2.91624014 -10.5257343 -5.89054855 0 0 Z " fill="#E5E5E5" transform="translate(107,5)"/>
<path d="M0 0 C3.94070946 2.29277641 6.1357805 4.45265211 7.5625 8.75 C8.47425008 13.60345747 7.19203045 17.66013326 5 22 C2.16897422 25.48433942 -1.53266019 25.58005745 -5.78125 26.08203125 C-8 26 -8 26 -12 24 C-12.33 27.63 -12.66 31.26 -13 35 C-15.31 35 -17.62 35 -20 35 C-20 23.78 -20 12.56 -20 1 C-17 1 -14 1 -11 1 C-7.50065205 -0.74967397 -3.81834705 -0.55189554 0 0 Z M-11.375 7.5625 C-13.43774093 10.6566114 -13.54400387 12.34740261 -13 16 C-12 18 -12 18 -10 19 C-5.92205575 19.42478586 -4.46923881 19.31282587 -1 17 C0.19838148 13.83284894 0.16512165 12.42737368 -1.0625 9.25 C-2.87435218 6.77381112 -2.87435218 6.77381112 -5.9375 5.9375 C-9.04721699 5.72907585 -9.04721699 5.72907585 -11.375 7.5625 Z " fill="#E5E5E5" transform="translate(163,13)"/>
<path d="M0 0 C2.93016852 0.73377233 2.93016852 0.73377233 9.16015625 0.48046875 C9.16015625 8.40046875 9.16015625 16.32046875 9.16015625 24.48046875 C6.16015625 24.48046875 3.16015625 24.48046875 0.16015625 24.48046875 C-0.484375 24.58746094 -1.12890625 24.69445312 -1.79296875 24.8046875 C-7.07214204 25.63965879 -10.25500656 25.64618967 -14.83984375 22.48046875 C-17.86168523 19.66703013 -18.53736778 16.65348112 -18.90234375 12.5703125 C-18.76100702 7.84436548 -16.74531272 4.51909492 -13.71484375 1.04296875 C-9.39273779 -1.30600188 -4.73607383 -1.33736268 0 0 Z M-8.65234375 7.60546875 C-11.17339263 10.30135197 -11.17339263 10.30135197 -10.77734375 13.66796875 C-10.04015817 16.57829672 -10.04015817 16.57829672 -7.83984375 18.48046875 C-3.1775549 18.94451335 -3.1775549 18.94451335 1.09765625 17.35546875 C2.69005908 14.54534611 2.6133495 12.65282151 2.16015625 9.48046875 C0.53435543 7.02094652 0.53435543 7.02094652 -1.83984375 5.48046875 C-5.89543589 5.07858002 -5.89543589 5.07858002 -8.65234375 7.60546875 Z " fill="#E5E5E5" transform="translate(128.83984375,13.51953125)"/>
<path d="M0 0 C2.31 0 4.62 0 7 0 C7.06058594 1.13179687 7.12117187 2.26359375 7.18359375 3.4296875 C7.26799917 4.91147145 7.35264717 6.3932416 7.4375 7.875 C7.47681641 8.62136719 7.51613281 9.36773437 7.55664062 10.13671875 C7.71573624 14.19986864 7.71573624 14.19986864 9 18 C11.31 18 13.62 18 16 18 C17.585869 14.828262 17.37866445 11.36486178 17.5625 7.875 C17.60568359 7.12089844 17.64886719 6.36679687 17.69335938 5.58984375 C17.7994832 3.72678112 17.90025001 1.86341476 18 0 C20.31 0 22.62 0 25 0 C25.14584064 3.22868746 25.23424106 6.45652365 25.3125 9.6875 C25.35439453 10.59951172 25.39628906 11.51152344 25.43945312 12.45117188 C25.56351016 19.27430887 25.56351016 19.27430887 22.59765625 23.09375 C18.14963612 26.35786101 14.48878288 26.37212087 9 26 C4.93630749 24.81202538 2.41760049 23.62640073 0 20 C-0.22705078 17.82348633 -0.22705078 17.82348633 -0.1953125 15.33203125 C-0.18564453 13.99301758 -0.18564453 13.99301758 -0.17578125 12.62695312 C-0.15902344 11.69818359 -0.14226562 10.76941406 -0.125 9.8125 C-0.11597656 8.87212891 -0.10695312 7.93175781 -0.09765625 6.96289062 C-0.07409056 4.64167032 -0.04119116 2.32096356 0 0 Z " fill="#E5E5E5" transform="translate(209,13)"/>
<path d="M0 0 C0 1.32 0 2.64 0 4 C2.97 4 5.94 4 9 4 C9 6.31 9 8.62 9 11 C6.03 11 3.06 11 0 11 C0.33 14.63 0.66 18.26 1 22 C3.64 22 6.28 22 9 22 C9 24.31 9 26.62 9 29 C5.38069302 30.20643566 2.80768995 30.32268559 -1 30 C-6.53846154 26.92307692 -6.53846154 26.92307692 -8 24 C-8.31780298 20.52790188 -8.32412612 17.04736075 -8.375 13.5625 C-8.41238281 12.59505859 -8.44976562 11.62761719 -8.48828125 10.63085938 C-8.5211933 7.99606709 -8.49427465 5.58886474 -8 3 C-5.15471601 0.36882601 -3.84880742 0 0 0 Z " fill="#E5E5E5" transform="translate(246,9)"/>
</svg>
