<svg xmlns="http://www.w3.org/2000/svg" viewBox="0 0 285 53.78">
	<path d="M247.45,357.11h43.3a7,7,0,0,1,6.47,7.26c4.18-2.38,8.51-4.5,12.74-6.78,0,3.55,0,7.09,0,10.64q-14.87,8-29.85,15.72c9.89,5.38,20,10.31,29.87,15.75-.06,3.57,0,7.15,0,10.72-4.23-2.29-8.53-4.44-12.71-6.82a7,7,0,0,1-6.45,7.3H248c-3.29-.17-6.36-2.52-6.51-6V393.34c6-3,12-6.21,18-9.39-6.07-2.92-11.93-6.24-18-9.19V363.15A6.73,6.73,0,0,1,247.45,357.11Zm0,10c7.45,3.82,14.86,7.71,22.3,11.55,7.26-3.91,14.63-7.61,21.89-11.54C276.94,367.1,262.21,367.12,247.49,367.09Zm.07,33.78c14.77.1,29.56,0,44.34.06-7.33-4-14.81-7.65-22.12-11.67C262.4,393.18,255,397,247.56,400.87Z" transform="translate(-241.5 -357.11)" fill="#FFF" />
	<path d="M339.42,361.87a28.15,28.15,0,0,1,22,1.47c0,2.75,0,5.49,0,8.24-4.91-2.62-10.64-4.27-16.19-3.08-4.74.9-9.09,4.68-9.74,9.61-.87,4.76,1.39,10.1,5.81,12.29,6.33,3.47,14.1,1.66,20.12-1.61,0,2.79,0,5.57,0,8.37-6.25,2.79-13.39,3.89-20.06,2A19.54,19.54,0,0,1,328.56,389a21,21,0,0,1-.35-16.8A19.42,19.42,0,0,1,339.42,361.87Z" transform="translate(-241.5 -357.11)" fill="#FFF" />
	<path d="M442,366.48c7.69-7.48,20.06-7.69,29.34-3.2,0,2.8,0,5.61,0,8.41-5.6-3.29-12.77-4.89-18.94-2.28a11.43,11.43,0,0,0-7.13,10.86c-.24,5.33,3.91,10.06,8.93,11.36,5.81,1.61,12,0,17.14-2.85,0,2.75,0,5.51,0,8.26-7.2,3.53-16,4.21-23.39.88a18.58,18.58,0,0,1-10.82-13.15A19.8,19.8,0,0,1,442,366.48Z" transform="translate(-241.5 -357.11)" fill="#FFF" />
	<path d="M516.18,367.16c0,1.78,0,3.56,0,5.34,3.42,0,6.84,0,10.26,0,0,2,0,4,0,6-3.43.06-6.86,0-10.29,0,.14,4.06-.31,8.17.23,12.2,1.57,4,6.8,3.27,10.05,2,0,2.06,0,4.13,0,6.19a18.1,18.1,0,0,1-12.31,0,8.9,8.9,0,0,1-5.46-8.31c0-6.56,0-13.12,0-19.69C511.22,369.79,513.73,368.52,516.18,367.16Z" transform="translate(-241.5 -357.11)" fill="#FFF" />
	<path d="M371.83,373.91c5.2-3.27,13-2.69,16.84,2.42,0-.77,0-2.3,0-3.07H396q0,13.11,0,26.23h-7.36c0-1.2,0-2.41,0-3.62-5.08,6.43-16.66,5.41-20.77-1.64C364.05,387.81,365.23,378.11,371.83,373.91Zm6.8,4.64c-4.35,1.38-6.21,6.77-4.46,10.79,1.85,4.8,8.93,6,12.45,2.38,3-2.69,3-7.72.66-10.83A8,8,0,0,0,378.63,378.55Z" transform="translate(-241.5 -357.11)" fill="#FFF" />
	<path d="M409.18,376.46c4.3-5.47,13.21-6.1,18.34-1.43s5.88,13,2.53,19c-4,7.19-15.54,8.32-20.89,2,.1,5,0,9.9,0,14.85h-7.48c0-12.54,0-25.08,0-37.62,2.48,0,5,0,7.45,0C409.18,374.33,409.18,375.4,409.18,376.46Zm5.18,2c-6,1.37-7.48,10.39-2.55,13.88,4.41,3.62,12.26.58,12.33-5.38C425,381.59,419.55,376.64,414.35,378.43Z" transform="translate(-241.5 -357.11)" fill="#FFF" />
	<path d="M475.94,372.52q3.73,0,7.48,0c0,5.06,0,10.14,0,15.2,0,2.12.81,4.62,3,5.41,3.54,1.78,9.08.35,9.55-4.12.18-5.5,0-11,.06-16.52l7.46,0c0,5.82,0,11.64,0,17.46a9.44,9.44,0,0,1-5.67,8.52,21.54,21.54,0,0,1-14.47.63c-3.79-1.08-7.19-4.33-7.36-8.43C475.86,384.65,476,378.58,475.94,372.52Z" transform="translate(-241.5 -357.11)" fill="#FFF" />
</svg>
