<?xml version="1.0" encoding="utf-8"?>
<!-- Generator: Adobe Illustrator 23.0.1, SVG Export Plug-In . SVG Version: 6.00 Build 0) -->
<svg version="1.1" id="Livello_1" xmlns:serif="http://www.serif.com/" xmlns="http://www.w3.org/2000/svg" xmlns:xlink="http://www.w3.org/1999/xlink" x="0px" y="0px" viewBox="0 0 1796.691 334.545" enable-background="new 0 0 1796.691 334.545" xml:space="preserve">
	<g>
		<g>
			<path fill="#FFF" d="M1242.44,55.69h-103.107v71.685h93.071v27.957h-93.071v71.685h103.107v27.957h-132.259V27.972h132.259
			V55.69z" />
			<path fill="#FFF" d="M1318.187,259.634c-15.097,0.621-29.868-4.502-41.338-14.337c-11.044-9.312-17.172-23.2-16.607-37.635
			c-0.559-15.71,6.8-30.652,19.594-39.785c14.164-9.96,31.204-14.996,48.507-14.337c14.562-0.561,29.018,2.692,41.936,9.439v-4.421
			c0.221-10.465-4.144-20.503-11.948-27.479c-7.902-6.962-18.146-10.675-28.674-10.394c-8.048-0.14-15.981,1.926-22.939,5.974
			c-6.594,3.592-11.556,9.58-13.859,16.727l-26.762-11.948c4.507-10.408,11.883-19.317,21.267-25.687
			c12.266-8.43,26.948-12.625,41.816-11.948c18.083-0.675,35.753,5.513,49.463,17.324c13.412,12.647,20.542,30.581,19.474,48.985
			v93.668h-27.957v-21.505h-1.195C1358.28,249.956,1338.831,260.436,1318.187,259.634z M1322.846,232.871
			c12.164-0.108,23.828-4.851,32.617-13.262c9.414-7.918,14.839-19.599,14.815-31.9c-10.812-7.541-23.891-11.128-37.037-10.155
			c-11.376-0.878-22.691,2.342-31.9,9.08c-6.686,5.159-10.682,13.063-10.872,21.505c-0.18,7.391,3.601,14.316,9.917,18.16
			C1307.041,230.699,1314.869,232.99,1322.846,232.871z" />
			<path fill="#FFF" d="M1456.061,99.418v25.209h1.314c3.457-9.135,10.126-16.696,18.758-21.267
			c9.229-5.174,19.647-7.851,30.227-7.766c3.437,0.021,6.869,0.26,10.275,0.717v28.435c-3.964-0.484-7.954-0.723-11.948-0.717
			c-12.54-0.57-24.818,3.709-34.289,11.947c-9.127,8.665-14.015,20.884-13.381,33.453v84.708h-29.152V98.82L1456.061,99.418z" />
			<path fill="#FFF" d="M1615.441,256.886c-13.579,1.019-26.978-3.606-37.037-12.784c-9.152-9.938-13.818-23.2-12.903-36.679
			v-81.601h-27.121V99.418h27.121v-47.79h29.152v47.79h38.113v26.643h-38.113v79.212c0,16.726,6.93,25.209,20.789,25.209
			c4.593,0.184,9.167-0.674,13.381-2.509l10.155,24.97C1631.477,255.827,1623.472,257.168,1615.441,256.886z" />
			<path fill="#FFF" d="M1688.321,27.972v71.685l-1.314,21.506h1.314c4.803-7.966,11.706-14.455,19.952-18.758
			c8.901-5.112,19.007-7.752,29.271-7.646c16.569-1.17,32.764,5.299,43.967,17.563c10.731,13.533,16.092,30.55,15.054,47.79v95.58
			h-29.152V164.89c0-28.674-12.903-43.011-38.352-43.011c-11.533-0.229-22.472,5.107-29.391,14.337
			c-7.744,9.38-11.97,21.17-11.948,33.334v85.783h-29.271V27.972H1688.321z" />
		</g>
		<g>
			<path fill-rule="evenodd" clip-rule="evenodd" fill="#4285F4" d="M0,129.766C0,58.237,60.283,0,131.99,0
			c39.661,0,67.9,15.508,89.156,35.763L196.08,60.769c-15.228-14.245-35.85-25.322-64.09-25.322
			c-52.351,0-93.281,42.096-93.281,94.319c0,52.223,40.93,94.319,93.281,94.319c33.948,0,53.302-13.609,65.676-25.955
			c10.155-10.128,16.816-24.686,19.356-44.624H131.99v-35.45h119.614c1.269,6.33,1.904,13.926,1.904,22.156
			c0,26.586-7.297,59.503-30.777,82.923c-22.84,23.737-52.034,36.396-90.74,36.396C60.283,259.531,0,201.298,0,129.766z" />
			<path fill-rule="evenodd" clip-rule="evenodd" fill="#EA4335" d="M350.177,226.614c-25.384,0-47.275-20.888-47.275-50.641
			c0-30.069,21.891-50.641,47.275-50.641c25.381,0,47.272,20.573,47.272,50.641C397.449,205.726,375.558,226.614,350.177,226.614z
			 M350.177,92.418c-46.324,0-84.081,35.13-84.081,83.556c0,48.109,37.757,83.558,84.081,83.558
			c46.321,0,84.077-35.449,84.077-83.558C434.254,127.548,396.498,92.418,350.177,92.418z" />
			<path fill-rule="evenodd" clip-rule="evenodd" fill="#FBBC04" d="M533.594,226.614c-25.381,0-47.276-20.888-47.276-50.641
			c0-30.069,21.895-50.641,47.276-50.641c25.381,0,47.272,20.573,47.272,50.641C580.867,205.726,558.976,226.614,533.594,226.614z
			 M533.594,92.418c-46.324,0-84.081,35.13-84.081,83.556c0,48.109,37.757,83.558,84.081,83.558c46.32,0,84.08-35.449,84.08-83.558
			C617.674,127.548,579.914,92.418,533.594,92.418z" />
			<path fill-rule="evenodd" clip-rule="evenodd" fill="#4285F4" d="M716.531,226.617c-25.381,0-46.641-21.204-46.641-50.324
			c0-29.433,21.259-50.957,46.641-50.957c25.064,0,44.737,21.524,44.737,50.957C761.269,205.412,741.596,226.617,716.531,226.617z
			 M758.729,97.482v13.612h-1.267c-8.249-9.811-24.115-18.673-44.103-18.673c-41.881,0-80.273,36.713-80.273,83.872
			c0,46.844,38.391,83.241,80.273,83.241c19.988,0,35.854-8.861,44.103-18.991h1.267v12.029c0,31.965-17.133,49.056-44.735,49.056
			c-22.526,0-36.488-16.141-42.2-29.75l-32.045,13.292c9.201,22.157,33.632,49.375,74.245,49.375
			c43.151,0,79.636-25.319,79.636-87.038V97.482H758.729z" />
			<path fill-rule="evenodd" clip-rule="evenodd" fill="#34A853" d="M855.818,254.465h-36.806V8.856h36.806V254.465z" />
			<path fill-rule="evenodd" clip-rule="evenodd" fill="#EA4335" d="M953.855,124.701c14.598,0,26.97,7.28,31.095,17.724
			l-74.878,31.019C909.12,141.159,935.137,124.701,953.855,124.701z M956.711,226.617c-18.718,0-32.044-8.545-40.609-25.319
			l112-46.211l-3.807-9.497c-6.98-18.673-28.24-53.172-71.707-53.172c-43.151,0-79.002,33.867-79.002,83.558
			c0,46.844,35.534,83.556,83.126,83.556c38.391,0,60.603-23.42,69.801-37.029l-28.554-18.99
			C988.441,217.439,975.432,226.617,956.711,226.617z" />
		</g>
	</g>
</svg>
