<?xml version="1.0" encoding="UTF-8" standalone="no"?>
<!DOCTYPE svg PUBLIC "-//W3C//DTD SVG 1.1//EN" "http://www.w3.org/Graphics/SVG/1.1/DTD/svg11.dtd">
<svg width="100%" height="100%" viewBox="0 0 512 140" version="1.1" xmlns="http://www.w3.org/2000/svg" xmlns:xlink="http://www.w3.org/1999/xlink" xml:space="preserve" xmlns:serif="http://www.serif.com/" style="fill-rule:evenodd;clip-rule:evenodd;stroke-linejoin:round;stroke-miterlimit:1.41421;">
    <g id="svg2" transform="matrix(1,0,0,1,0,-190.63)">
        <g id="g6907" transform="matrix(1,0,0,1,0,4.63)">
            <path id="path6909_00000046315518366251323790000006577709874943030152_" d="M57.3,320.56C113.79,288.28 113.79,288.28 113.79,207.58C89.58,207.58 81.51,207.58 57.3,191.44M57.3,320.56C0.81,288.28 0.81,288.28 0.81,207.58C25.02,207.58 33.09,207.58 57.3,191.44" style="fill:rgb(128,0,0);fill-rule:nonzero;"/>
            <path d="M57.3,321.37C57.19,321.37 57.08,321.35 56.97,321.3C56.94,321.29 56.91,321.27 56.89,321.26C0,288.75 0,288.74 0,207.58C0,207.13 0.36,206.77 0.81,206.77C24.77,206.77 32.84,206.77 56.84,190.78C56.88,190.75 56.92,190.73 56.96,190.71C57.07,190.66 57.18,190.63 57.3,190.63C57.41,190.63 57.53,190.65 57.64,190.7C57.68,190.72 57.73,190.74 57.77,190.77C81.76,206.76 89.84,206.76 113.8,206.76C114.25,206.76 114.61,207.12 114.61,207.57C114.61,288.73 114.61,288.74 57.73,321.24C57.7,321.25 57.68,321.27 57.65,321.28C57.52,321.34 57.41,321.37 57.3,321.37ZM1.61,208.39C1.61,287.63 1.8,287.92 57.3,319.64C112.8,287.93 112.98,287.63 112.99,208.39C89.43,208.39 81.1,208.21 57.3,192.41C33.5,208.21 25.17,208.38 1.61,208.39Z" style="fill:white;fill-rule:nonzero;"/>
        </g>
        <g id="layer5" transform="matrix(1,0,0,1,0,4.63)">
            <path d="M69.4,272.14C58.28,272.14 49.23,263.09 49.23,251.97C49.23,240.85 58.28,231.8 69.4,231.8C80.52,231.8 89.57,240.85 89.57,251.97C89.57,263.09 80.52,272.14 69.4,272.14ZM69.4,239.85C62.72,239.85 57.29,245.28 57.29,251.96C57.29,258.64 62.72,264.07 69.4,264.07C76.08,264.07 81.51,258.64 81.51,251.96C81.51,245.29 76.08,239.85 69.4,239.85Z" style="fill:white;fill-rule:nonzero;"/>
            <path id="path3783" d="M57.3,256C57.3,267.1 52.26,272.14 41.16,272.14C30.06,272.14 25.02,267.1 25.02,256L25.02,231.79L33.09,231.79L33.09,256C33.09,263.06 34.1,264.07 41.16,264.07C48.22,264.07 49.23,263.06 49.23,256L49.23,231.79L57.3,231.79L57.3,256Z" style="fill:white;fill-rule:nonzero;"/>
        </g>
        <g transform="matrix(1,0,0,1,0,4.63)">
            <path d="M147.56,273.76L147.56,268.69C144.87,272.59 141.22,274.54 136.6,274.54C134.56,274.54 132.66,274.15 130.89,273.37C129.12,272.59 127.81,271.61 126.96,270.43C126.1,269.25 125.5,267.8 125.16,266.09C124.92,264.94 124.8,263.12 124.8,260.63L124.8,239.23L130.65,239.23L130.65,258.38C130.65,261.44 130.77,263.5 131.01,264.56C131.38,266.1 132.16,267.31 133.35,268.19C134.54,269.07 136.02,269.51 137.77,269.51C139.52,269.51 141.17,269.06 142.71,268.16C144.25,267.26 145.34,266.04 145.98,264.49C146.62,262.94 146.94,260.69 146.94,257.74L146.94,239.24L152.79,239.24L152.79,273.78L147.56,273.78L147.56,273.76Z" style="fill:white;fill-rule:nonzero;"/>
            <path d="M162.45,273.76L162.45,226.09L180.34,226.09C183.98,226.09 186.9,226.57 189.1,227.54C191.3,228.51 193.02,229.99 194.27,232C195.52,234.01 196.14,236.1 196.14,238.29C196.14,240.33 195.59,242.25 194.48,244.05C193.37,245.85 191.7,247.3 189.47,248.41C192.35,249.26 194.57,250.7 196.12,252.73C197.67,254.77 198.45,257.17 198.45,259.95C198.45,262.18 197.98,264.26 197.04,266.18C196.1,268.1 194.93,269.58 193.54,270.62C192.15,271.66 190.41,272.45 188.32,272.98C186.23,273.51 183.66,273.78 180.63,273.78L162.45,273.78L162.45,273.76ZM168.76,246.12L179.07,246.12C181.87,246.12 183.87,245.94 185.09,245.57C186.69,245.09 187.9,244.3 188.72,243.2C189.53,242.09 189.94,240.71 189.94,239.04C189.94,237.46 189.56,236.06 188.8,234.86C188.04,233.66 186.96,232.83 185.55,232.39C184.14,231.95 181.72,231.72 178.3,231.72L168.77,231.72L168.77,246.12L168.76,246.12ZM168.76,268.14L180.63,268.14C182.67,268.14 184.1,268.06 184.92,267.91C186.37,267.65 187.59,267.22 188.56,266.61C189.54,266 190.34,265.12 190.97,263.96C191.6,262.8 191.91,261.46 191.91,259.94C191.91,258.16 191.45,256.62 190.54,255.31C189.63,254 188.37,253.08 186.75,252.55C185.14,252.02 182.81,251.75 179.78,251.75L168.76,251.75L168.76,268.14Z" style="fill:white;fill-rule:nonzero;"/>
            <rect x="206.26" y="226.09" width="5.85" height="47.67" style="fill:white;fill-rule:nonzero;"/>
            <path d="M219,256.5C219,250.1 220.78,245.37 224.33,242.29C227.3,239.73 230.92,238.45 235.19,238.45C239.94,238.45 243.82,240.01 246.83,243.12C249.84,246.23 251.35,250.53 251.35,256.01C251.35,260.45 250.68,263.95 249.35,266.5C248.02,269.05 246.08,271.03 243.53,272.44C240.98,273.85 238.2,274.55 235.19,274.55C230.36,274.55 226.45,273 223.47,269.9C220.49,266.79 219,262.33 219,256.5ZM225.02,256.5C225.02,260.92 225.98,264.23 227.91,266.43C229.84,268.63 232.27,269.73 235.19,269.73C238.09,269.73 240.51,268.62 242.44,266.41C244.37,264.2 245.33,260.83 245.33,256.3C245.33,252.03 244.36,248.79 242.42,246.59C240.48,244.39 238.07,243.29 235.18,243.29C232.25,243.29 229.82,244.38 227.9,246.57C225.98,248.77 225.02,252.07 225.02,256.5Z" style="fill:white;fill-rule:nonzero;"/>
            <path d="M280.76,261.11L286.52,261.86C285.89,265.83 284.28,268.93 281.69,271.18C279.1,273.43 275.92,274.55 272.15,274.55C267.42,274.55 263.62,273.01 260.75,269.92C257.88,266.83 256.44,262.4 256.44,256.64C256.44,252.91 257.06,249.65 258.29,246.85C259.53,244.05 261.41,241.96 263.93,240.56C266.46,239.16 269.2,238.46 272.17,238.46C275.92,238.46 278.99,239.41 281.37,241.31C283.75,243.21 285.28,245.9 285.96,249.39L280.27,250.27C279.73,247.95 278.77,246.21 277.39,245.03C276.01,243.86 274.35,243.27 272.4,243.27C269.45,243.27 267.05,244.33 265.21,246.44C263.37,248.55 262.45,251.9 262.45,256.47C262.45,261.11 263.34,264.48 265.12,266.58C266.9,268.68 269.22,269.73 272.08,269.73C274.38,269.73 276.3,269.03 277.84,267.62C279.37,266.21 280.35,264.04 280.76,261.11Z" style="fill:white;fill-rule:nonzero;"/>
            <path d="M291.55,273.76L291.55,226.09L297.4,226.09L297.4,253.28L311.25,239.23L318.83,239.23L305.63,252.04L320.17,273.76L312.95,273.76L301.54,256.1L297.41,260.07L297.41,273.76L291.55,273.76Z" style="fill:white;fill-rule:nonzero;"/>
            <path d="M342.15,250.55C342.15,242.64 344.27,236.44 348.52,231.97C352.77,227.49 358.25,225.25 364.97,225.25C369.37,225.25 373.34,226.3 376.87,228.4C380.4,230.5 383.1,233.44 384.95,237.2C386.8,240.96 387.73,245.23 387.73,250C387.73,254.83 386.76,259.16 384.8,262.98C382.85,266.8 380.08,269.68 376.51,271.65C372.93,273.61 369.07,274.59 364.93,274.59C360.44,274.59 356.43,273.51 352.9,271.34C349.37,269.17 346.69,266.21 344.87,262.46C343.06,258.7 342.15,254.73 342.15,250.55ZM348.66,250.64C348.66,256.39 350.2,260.91 353.29,264.22C356.38,267.53 360.25,269.18 364.92,269.18C369.67,269.18 373.58,267.51 376.64,264.17C379.71,260.83 381.24,256.09 381.24,249.96C381.24,246.08 380.58,242.69 379.27,239.8C377.96,236.91 376.04,234.66 373.51,233.07C370.98,231.48 368.15,230.68 365.01,230.68C360.54,230.68 356.7,232.21 353.48,235.28C350.27,238.35 348.66,243.47 348.66,250.64Z" style="fill:white;fill-rule:nonzero;"/>
            <path d="M395.06,273.76L395.06,239.22L400.33,239.22L400.33,244.46C401.67,242.01 402.92,240.4 404.05,239.61C405.19,238.83 406.44,238.44 407.81,238.44C409.78,238.44 411.79,239.07 413.83,240.33L411.81,245.76C410.38,244.91 408.95,244.49 407.52,244.49C406.24,244.49 405.09,244.88 404.07,245.64C403.05,246.41 402.32,247.48 401.89,248.84C401.24,250.92 400.91,253.2 400.91,255.67L400.91,273.75L395.06,273.75L395.06,273.76Z" style="fill:white;fill-rule:nonzero;"/>
            <path d="M417.34,232.82L417.34,226.09L423.19,226.09L423.19,232.82L417.34,232.82ZM417.34,273.76L417.34,239.22L423.19,239.22L423.19,273.76L417.34,273.76Z" style="fill:white;fill-rule:nonzero;"/>
            <path d="M431.03,276.63L436.72,277.48C436.96,279.24 437.62,280.51 438.7,281.32C440.15,282.4 442.14,282.95 444.65,282.95C447.36,282.95 449.45,282.41 450.93,281.32C452.4,280.24 453.4,278.72 453.92,276.77C454.22,275.58 454.36,273.07 454.34,269.26C451.78,272.27 448.59,273.78 444.78,273.78C440.03,273.78 436.36,272.07 433.76,268.64C431.16,265.22 429.86,261.11 429.86,256.32C429.86,253.03 430.46,249.98 431.65,247.2C432.84,244.41 434.57,242.26 436.84,240.74C439.11,239.22 441.77,238.46 444.82,238.46C448.9,238.46 452.26,240.11 454.9,243.4L454.9,239.24L460.3,239.24L460.3,269.09C460.3,274.47 459.75,278.28 458.66,280.52C457.57,282.76 455.83,284.54 453.46,285.84C451.09,287.14 448.16,287.79 444.7,287.79C440.58,287.79 437.25,286.86 434.72,285.01C432.17,283.15 430.94,280.35 431.03,276.63ZM435.87,255.88C435.87,260.41 436.77,263.72 438.57,265.8C440.37,267.88 442.62,268.92 445.33,268.92C448.02,268.92 450.27,267.89 452.09,265.81C453.91,263.74 454.82,260.49 454.82,256.07C454.82,251.84 453.88,248.66 452.01,246.51C450.13,244.36 447.87,243.29 445.23,243.29C442.63,243.29 440.42,244.35 438.6,246.46C436.78,248.58 435.87,251.72 435.87,255.88Z" style="fill:white;fill-rule:nonzero;"/>
            <path d="M469.17,232.82L469.17,226.09L475.02,226.09L475.02,232.82L469.17,232.82ZM469.17,273.76L469.17,239.22L475.02,239.22L475.02,273.76L469.17,273.76Z" style="fill:white;fill-rule:nonzero;"/>
            <path d="M483.94,273.76L483.94,239.22L489.21,239.22L489.21,244.13C491.75,240.34 495.41,238.44 500.2,238.44C502.28,238.44 504.19,238.81 505.94,239.56C507.69,240.31 508.99,241.29 509.86,242.5C510.73,243.71 511.33,245.16 511.68,246.82C511.9,247.9 512,249.8 512,252.51L512,273.74L506.15,273.74L506.15,252.73C506.15,250.35 505.92,248.56 505.47,247.38C505.01,246.2 504.21,245.26 503.05,244.55C501.89,243.85 500.53,243.49 498.97,243.49C496.48,243.49 494.32,244.28 492.52,245.86C490.71,247.44 489.8,250.45 489.8,254.87L489.8,273.73L483.94,273.73L483.94,273.76Z" style="fill:white;fill-rule:nonzero;"/>
        </g>
    </g>
</svg>
